<svg width="1200" height="630" viewBox="0 0 1200 630" fill="none" xmlns="http://www.w3.org/2000/svg">
  <rect width="1200" height="630" fill="#050D16" />
  <rect width="1200" height="630" fill="url(#glow)" />
  <g opacity="0.2">
    <path d="M0 90H1200" stroke="#0D3042" />
    <path d="M0 180H1200" stroke="#0D3042" />
    <path d="M0 270H1200" stroke="#0D3042" />
    <path d="M0 360H1200" stroke="#0D3042" />
    <path d="M0 450H1200" stroke="#0D3042" />
    <path d="M0 540H1200" stroke="#0D3042" />
    <path d="M120 0V630" stroke="#0D3042" />
    <path d="M240 0V630" stroke="#0D3042" />
    <path d="M360 0V630" stroke="#0D3042" />
    <path d="M480 0V630" stroke="#0D3042" />
    <path d="M600 0V630" stroke="#0D3042" />
    <path d="M720 0V630" stroke="#0D3042" />
    <path d="M840 0V630" stroke="#0D3042" />
    <path d="M960 0V630" stroke="#0D3042" />
    <path d="M1080 0V630" stroke="#0D3042" />
  </g>
  <rect x="80" y="72" width="1040" height="486" rx="36" fill="url(#panel)" stroke="#114A66" />
  <rect x="124" y="116" width="200" height="200" rx="44" fill="#071827" stroke="#1BD9F5" />
  <path
    d="M224 144L280 168V220C280 263 258 298 224 320C190 298 168 263 168 220V168L224 144Z"
    fill="#0D3146"
    stroke="#8FF4FF"
    stroke-width="10"
    stroke-linejoin="round"
  />
  <path
    d="M243 199C237 189 228 184 218 184C199 184 186 199 186 228C186 256 200 271 221 271C231 271 241 267 247 258"
    stroke="white"
    stroke-width="16"
    stroke-linecap="round"
  />
  <circle cx="252" cy="228" r="8" fill="#FFD166" />
  <text x="372" y="206" fill="#8FF4FF" font-family="'Segoe UI', Arial, sans-serif" font-size="28" font-weight="700" letter-spacing="0.18em">
    SMART INFRASTRUCTURE INTELLIGENCE
  </text>
  <text x="372" y="300" fill="white" font-family="'Space Grotesk', 'Segoe UI', Arial, sans-serif" font-size="86" font-weight="700">
    CiviGuard AI
  </text>
  <text x="372" y="368" fill="#C0D5E5" font-family="'Segoe UI', Arial, sans-serif" font-size="32">
    Citizen reporting, live monitoring, and predictive maintenance in one app.
  </text>
  <rect x="372" y="418" width="278" height="56" rx="18" fill="#071827" stroke="#16627F" />
  <circle cx="406" cy="446" r="8" fill="#00E5FF" />
  <text x="428" y="454" fill="#E7F6FF" font-family="'Segoe UI', Arial, sans-serif" font-size="24" font-weight="600">
    Installable web app
  </text>
  <defs>
    <radialGradient id="glow" cx="0" cy="0" r="1" gradientUnits="userSpaceOnUse" gradientTransform="translate(780 250) rotate(145.198) scale(744.74 597.061)">
      <stop stop-color="#0B3F5B" stop-opacity="0.75" />
      <stop offset="1" stop-color="#050D16" stop-opacity="0" />
    </radialGradient>
    <linearGradient id="panel" x1="112" y1="98" x2="1064" y2="540" gradientUnits="userSpaceOnUse">
      <stop stop-color="#0A1724" />
      <stop offset="1" stop-color="#06111B" />
    </linearGradient>
  </defs>
</svg>
